<mxfile host="app.diagrams.net" modified="2021-10-27T14:31:25.352Z" agent="5.0 (Windows NT 10.0; Win64; x64) AppleWebKit/537.36 (KHTML, like Gecko) Chrome/95.0.4638.54 Safari/537.36" etag="GTakSxvhgxGmHTRvJfxs" version="15.3.3" type="github">
  <diagram id="QRhNo6jR8H003UJVbGRB" name="Page-1">
    <mxGraphModel dx="2249" dy="706" grid="1" gridSize="10" guides="1" tooltips="1" connect="1" arrows="1" fold="1" page="1" pageScale="1" pageWidth="827" pageHeight="1169" math="0" shadow="0">
      <root>
        <mxCell id="0" />
        <mxCell id="1" parent="0" />
        <mxCell id="ec4JusLecJyckskTLa_B-1" value="canservice" style="rounded=1;whiteSpace=wrap;html=1;arcSize=40;fontColor=#000000;fillColor=#ffffc0;strokeColor=#ff0000;hachureGap=4;pointerEvents=0;" vertex="1" parent="1">
          <mxGeometry x="30" y="80" width="120" height="40" as="geometry" />
        </mxCell>
        <mxCell id="ec4JusLecJyckskTLa_B-2" value="" style="edgeStyle=orthogonalEdgeStyle;html=1;verticalAlign=bottom;endArrow=open;endSize=8;strokeColor=#ff0000;sourcePerimeterSpacing=8;targetPerimeterSpacing=8;" edge="1" source="ec4JusLecJyckskTLa_B-1" parent="1">
          <mxGeometry relative="1" as="geometry">
            <mxPoint x="90" y="570" as="targetPoint" />
          </mxGeometry>
        </mxCell>
        <mxCell id="ec4JusLecJyckskTLa_B-3" value="Car&amp;nbsp;App" style="rounded=1;whiteSpace=wrap;html=1;arcSize=40;fontColor=#000000;fillColor=#ffffc0;strokeColor=#ff0000;hachureGap=4;pointerEvents=0;" vertex="1" parent="1">
          <mxGeometry x="220" y="80" width="120" height="40" as="geometry" />
        </mxCell>
        <mxCell id="ec4JusLecJyckskTLa_B-4" value="" style="edgeStyle=orthogonalEdgeStyle;html=1;verticalAlign=bottom;endArrow=open;endSize=8;strokeColor=#ff0000;sourcePerimeterSpacing=8;targetPerimeterSpacing=8;" edge="1" source="ec4JusLecJyckskTLa_B-3" parent="1">
          <mxGeometry relative="1" as="geometry">
            <mxPoint x="280" y="570" as="targetPoint" />
          </mxGeometry>
        </mxCell>
        <mxCell id="ec4JusLecJyckskTLa_B-10" value="发送旧的时间格式" style="html=1;verticalAlign=bottom;endArrow=block;startSize=14;endSize=14;sourcePerimeterSpacing=8;targetPerimeterSpacing=8;" edge="1" parent="1">
          <mxGeometry width="80" relative="1" as="geometry">
            <mxPoint x="90" y="180" as="sourcePoint" />
            <mxPoint x="280" y="180" as="targetPoint" />
          </mxGeometry>
        </mxCell>
        <mxCell id="ec4JusLecJyckskTLa_B-11" value="发送新的时间格式" style="html=1;verticalAlign=bottom;endArrow=block;startSize=14;endSize=14;sourcePerimeterSpacing=8;targetPerimeterSpacing=8;" edge="1" parent="1">
          <mxGeometry width="80" relative="1" as="geometry">
            <mxPoint x="90" y="240" as="sourcePoint" />
            <mxPoint x="280" y="240" as="targetPoint" />
          </mxGeometry>
        </mxCell>
        <mxCell id="ec4JusLecJyckskTLa_B-12" value="线程1" style="rounded=1;whiteSpace=wrap;html=1;arcSize=40;fontColor=#000000;fillColor=#ffffc0;strokeColor=#ff0000;hachureGap=4;pointerEvents=0;" vertex="1" parent="1">
          <mxGeometry x="414" y="80" width="120" height="40" as="geometry" />
        </mxCell>
        <mxCell id="ec4JusLecJyckskTLa_B-13" value="" style="edgeStyle=orthogonalEdgeStyle;html=1;verticalAlign=bottom;endArrow=open;endSize=8;strokeColor=#ff0000;targetPerimeterSpacing=8;startArrow=none;" edge="1" source="ec4JusLecJyckskTLa_B-23" parent="1">
          <mxGeometry relative="1" as="geometry">
            <mxPoint x="474" y="570" as="targetPoint" />
          </mxGeometry>
        </mxCell>
        <mxCell id="ec4JusLecJyckskTLa_B-16" value="线程2" style="rounded=1;whiteSpace=wrap;html=1;arcSize=40;fontColor=#000000;fillColor=#ffffc0;strokeColor=#ff0000;hachureGap=4;pointerEvents=0;" vertex="1" parent="1">
          <mxGeometry x="580" y="80" width="120" height="40" as="geometry" />
        </mxCell>
        <mxCell id="ec4JusLecJyckskTLa_B-17" value="" style="edgeStyle=orthogonalEdgeStyle;html=1;verticalAlign=bottom;endArrow=open;endSize=8;strokeColor=#ff0000;sourcePerimeterSpacing=8;targetPerimeterSpacing=8;" edge="1" parent="1" source="ec4JusLecJyckskTLa_B-16">
          <mxGeometry relative="1" as="geometry">
            <mxPoint x="640" y="570" as="targetPoint" />
          </mxGeometry>
        </mxCell>
        <mxCell id="ec4JusLecJyckskTLa_B-21" value="创建线程1&amp;nbsp;更新旧的时间格式" style="html=1;verticalAlign=bottom;startArrow=oval;endArrow=block;startSize=8;sourcePerimeterSpacing=8;targetPerimeterSpacing=8;" edge="1" parent="1">
          <mxGeometry relative="1" as="geometry">
            <mxPoint x="280" y="200" as="sourcePoint" />
            <mxPoint x="470" y="200" as="targetPoint" />
          </mxGeometry>
        </mxCell>
        <mxCell id="ec4JusLecJyckskTLa_B-20" value="" style="html=1;points=[];perimeter=orthogonalPerimeter;hachureGap=4;pointerEvents=0;" vertex="1" parent="1">
          <mxGeometry x="469" y="200" width="10" height="60" as="geometry" />
        </mxCell>
        <mxCell id="ec4JusLecJyckskTLa_B-22" value="" style="edgeStyle=orthogonalEdgeStyle;html=1;verticalAlign=bottom;endArrow=none;endSize=8;strokeColor=#ff0000;sourcePerimeterSpacing=8;" edge="1" parent="1" source="ec4JusLecJyckskTLa_B-12" target="ec4JusLecJyckskTLa_B-20">
          <mxGeometry relative="1" as="geometry">
            <mxPoint x="474" y="570" as="targetPoint" />
            <mxPoint x="474" y="138" as="sourcePoint" />
          </mxGeometry>
        </mxCell>
        <mxCell id="ec4JusLecJyckskTLa_B-23" value="" style="html=1;points=[];perimeter=orthogonalPerimeter;hachureGap=4;pointerEvents=0;" vertex="1" parent="1">
          <mxGeometry x="469" y="280" width="10" height="140" as="geometry" />
        </mxCell>
        <mxCell id="ec4JusLecJyckskTLa_B-24" value="" style="edgeStyle=orthogonalEdgeStyle;html=1;verticalAlign=bottom;endArrow=none;endSize=8;strokeColor=#ff0000;startArrow=none;" edge="1" parent="1" source="ec4JusLecJyckskTLa_B-20" target="ec4JusLecJyckskTLa_B-23">
          <mxGeometry relative="1" as="geometry">
            <mxPoint x="474" y="570" as="targetPoint" />
            <mxPoint x="474" y="260" as="sourcePoint" />
          </mxGeometry>
        </mxCell>
        <mxCell id="ec4JusLecJyckskTLa_B-25" value="" style="html=1;points=[];perimeter=orthogonalPerimeter;hachureGap=4;pointerEvents=0;" vertex="1" parent="1">
          <mxGeometry x="635" y="270" width="10" height="110" as="geometry" />
        </mxCell>
        <mxCell id="ec4JusLecJyckskTLa_B-26" value="创建线程2&amp;nbsp;更新新的时间格式" style="html=1;verticalAlign=bottom;startArrow=oval;endArrow=block;startSize=8;sourcePerimeterSpacing=8;targetPerimeterSpacing=8;" edge="1" target="ec4JusLecJyckskTLa_B-25" parent="1">
          <mxGeometry x="0.4409" relative="1" as="geometry">
            <mxPoint x="280" y="270" as="sourcePoint" />
            <mxPoint as="offset" />
          </mxGeometry>
        </mxCell>
        <mxCell id="ec4JusLecJyckskTLa_B-29" value="更新时间格式" style="edgeStyle=orthogonalEdgeStyle;html=1;align=left;spacingLeft=2;endArrow=block;rounded=0;entryX=1.3;entryY=0.864;startSize=14;endSize=14;sourcePerimeterSpacing=8;targetPerimeterSpacing=8;entryDx=0;entryDy=0;entryPerimeter=0;" edge="1" target="ec4JusLecJyckskTLa_B-25" parent="1">
          <mxGeometry relative="1" as="geometry">
            <mxPoint x="640" y="270" as="sourcePoint" />
            <Array as="points">
              <mxPoint x="680" y="270" />
              <mxPoint x="680" y="365" />
            </Array>
            <mxPoint x="655" y="290" as="targetPoint" />
          </mxGeometry>
        </mxCell>
        <mxCell id="ec4JusLecJyckskTLa_B-30" value="更新时间格式" style="edgeStyle=orthogonalEdgeStyle;html=1;align=left;spacingLeft=2;endArrow=block;rounded=0;entryX=1.3;entryY=0.864;startSize=14;endSize=14;sourcePerimeterSpacing=8;targetPerimeterSpacing=8;entryDx=0;entryDy=0;entryPerimeter=0;exitX=1;exitY=0.267;exitDx=0;exitDy=0;exitPerimeter=0;" edge="1" parent="1" source="ec4JusLecJyckskTLa_B-20">
          <mxGeometry relative="1" as="geometry">
            <mxPoint x="469" y="310" as="sourcePoint" />
            <Array as="points">
              <mxPoint x="519" y="216" />
              <mxPoint x="519" y="405" />
            </Array>
            <mxPoint x="477" y="405.03999999999996" as="targetPoint" />
          </mxGeometry>
        </mxCell>
        <mxCell id="ec4JusLecJyckskTLa_B-31" value="" style="line;strokeWidth=1;fillColor=none;align=left;verticalAlign=middle;spacingTop=-1;spacingLeft=3;spacingRight=3;rotatable=0;labelPosition=right;points=[];portConstraint=eastwest;hachureGap=4;pointerEvents=0;" vertex="1" parent="1">
          <mxGeometry x="390" y="390" width="380" height="8" as="geometry" />
        </mxCell>
        <mxCell id="ec4JusLecJyckskTLa_B-32" value="根据操作系统设计的特征，&lt;br&gt;两个线程运行速度是不可预知的，&lt;br&gt;会出现线程2先结束，&lt;br&gt;线程1后结束的情况" style="html=1;hachureGap=4;pointerEvents=0;" vertex="1" parent="1">
          <mxGeometry x="490" y="450" width="190" height="80" as="geometry" />
        </mxCell>
        <mxCell id="ec4JusLecJyckskTLa_B-33" value="canservice" style="rounded=1;whiteSpace=wrap;html=1;arcSize=40;fontColor=#000000;fillColor=#ffffc0;strokeColor=#ff0000;hachureGap=4;pointerEvents=0;" vertex="1" parent="1">
          <mxGeometry x="40" y="630" width="120" height="40" as="geometry" />
        </mxCell>
        <mxCell id="ec4JusLecJyckskTLa_B-34" value="" style="edgeStyle=orthogonalEdgeStyle;html=1;verticalAlign=bottom;endArrow=open;endSize=8;strokeColor=#ff0000;sourcePerimeterSpacing=8;targetPerimeterSpacing=8;" edge="1" parent="1" source="ec4JusLecJyckskTLa_B-33">
          <mxGeometry relative="1" as="geometry">
            <mxPoint x="100" y="1110" as="targetPoint" />
          </mxGeometry>
        </mxCell>
        <mxCell id="ec4JusLecJyckskTLa_B-35" value="Car&amp;nbsp;App" style="rounded=1;whiteSpace=wrap;html=1;arcSize=40;fontColor=#000000;fillColor=#ffffc0;strokeColor=#ff0000;hachureGap=4;pointerEvents=0;" vertex="1" parent="1">
          <mxGeometry x="230" y="630" width="120" height="40" as="geometry" />
        </mxCell>
        <mxCell id="ec4JusLecJyckskTLa_B-36" value="" style="edgeStyle=orthogonalEdgeStyle;html=1;verticalAlign=bottom;endArrow=open;endSize=8;strokeColor=#ff0000;sourcePerimeterSpacing=8;targetPerimeterSpacing=8;" edge="1" parent="1" source="ec4JusLecJyckskTLa_B-35">
          <mxGeometry relative="1" as="geometry">
            <mxPoint x="290" y="1110" as="targetPoint" />
          </mxGeometry>
        </mxCell>
        <mxCell id="ec4JusLecJyckskTLa_B-37" value="发送旧的时间格式" style="html=1;verticalAlign=bottom;endArrow=block;startSize=14;endSize=14;sourcePerimeterSpacing=8;targetPerimeterSpacing=8;" edge="1" parent="1">
          <mxGeometry width="80" relative="1" as="geometry">
            <mxPoint x="100" y="720" as="sourcePoint" />
            <mxPoint x="290" y="720" as="targetPoint" />
          </mxGeometry>
        </mxCell>
        <mxCell id="ec4JusLecJyckskTLa_B-38" value="发送新的时间格式" style="html=1;verticalAlign=bottom;endArrow=block;startSize=14;endSize=14;sourcePerimeterSpacing=8;targetPerimeterSpacing=8;" edge="1" parent="1">
          <mxGeometry width="80" relative="1" as="geometry">
            <mxPoint x="100" y="810" as="sourcePoint" />
            <mxPoint x="290" y="810" as="targetPoint" />
          </mxGeometry>
        </mxCell>
        <mxCell id="ec4JusLecJyckskTLa_B-43" value="更新时间格式" style="html=1;verticalAlign=bottom;startArrow=oval;endArrow=block;startSize=8;sourcePerimeterSpacing=8;targetPerimeterSpacing=8;" edge="1" parent="1">
          <mxGeometry relative="1" as="geometry">
            <mxPoint x="290" y="740" as="sourcePoint" />
            <mxPoint x="290" y="780" as="targetPoint" />
            <Array as="points">
              <mxPoint x="370" y="740" />
              <mxPoint x="370" y="780" />
            </Array>
          </mxGeometry>
        </mxCell>
        <mxCell id="ec4JusLecJyckskTLa_B-59" value="更新时间格式" style="html=1;verticalAlign=bottom;startArrow=oval;endArrow=block;startSize=8;sourcePerimeterSpacing=8;targetPerimeterSpacing=8;" edge="1" parent="1">
          <mxGeometry relative="1" as="geometry">
            <mxPoint x="290" y="830" as="sourcePoint" />
            <mxPoint x="290" y="870" as="targetPoint" />
            <Array as="points">
              <mxPoint x="370" y="830" />
              <mxPoint x="370" y="870" />
            </Array>
          </mxGeometry>
        </mxCell>
        <mxCell id="ec4JusLecJyckskTLa_B-60" value="ISSW" style="rounded=1;whiteSpace=wrap;html=1;arcSize=40;fontColor=#000000;fillColor=#ffffc0;strokeColor=#ff0000;hachureGap=4;pointerEvents=0;" vertex="1" parent="1">
          <mxGeometry x="-150" y="80" width="120" height="40" as="geometry" />
        </mxCell>
        <mxCell id="ec4JusLecJyckskTLa_B-61" value="" style="edgeStyle=orthogonalEdgeStyle;html=1;verticalAlign=bottom;endArrow=open;endSize=8;strokeColor=#ff0000;sourcePerimeterSpacing=8;targetPerimeterSpacing=8;" edge="1" source="ec4JusLecJyckskTLa_B-60" parent="1">
          <mxGeometry relative="1" as="geometry">
            <mxPoint x="-90" y="570" as="targetPoint" />
          </mxGeometry>
        </mxCell>
        <mxCell id="ec4JusLecJyckskTLa_B-62" value="发送旧的时间格式" style="html=1;verticalAlign=bottom;endArrow=block;startSize=14;endSize=14;sourcePerimeterSpacing=8;targetPerimeterSpacing=8;" edge="1" parent="1">
          <mxGeometry width="80" relative="1" as="geometry">
            <mxPoint x="-90" y="160" as="sourcePoint" />
            <mxPoint x="90" y="160" as="targetPoint" />
          </mxGeometry>
        </mxCell>
        <mxCell id="ec4JusLecJyckskTLa_B-63" value="发送新的时间格式" style="html=1;verticalAlign=bottom;endArrow=block;startSize=14;endSize=14;sourcePerimeterSpacing=8;targetPerimeterSpacing=8;" edge="1" parent="1">
          <mxGeometry width="80" relative="1" as="geometry">
            <mxPoint x="-90" y="210" as="sourcePoint" />
            <mxPoint x="90" y="210" as="targetPoint" />
          </mxGeometry>
        </mxCell>
      </root>
    </mxGraphModel>
  </diagram>
</mxfile>
